<?xml version="1.0" standalone="no"?>
<!DOCTYPE svg PUBLIC "-//W3C//DTD SVG 20010904//EN"
 "http://www.w3.org/TR/2001/REC-SVG-20010904/DTD/svg10.dtd">
<svg version="1.0" xmlns="http://www.w3.org/2000/svg"
 width="1000.000000pt" height="1000.000000pt" viewBox="0 0 1000.000000 1000.000000"
 preserveAspectRatio="xMidYMid meet">
<metadata>
Created by potrace 1.14, written by Peter Selinger 2001-2017
</metadata>
<g transform="translate(0.000000,1000.000000) scale(0.100000,-0.100000)"
fill="#000000" stroke="none">
<path d="M1625 6848 c-2 -7 -5 -24 -7 -38 -3 -24 -6 -25 -80 -28 -73 -3 -78
-4 -84 -28 -3 -13 -4 -35 -2 -48 4 -21 0 -25 -27 -30 -17 -4 -45 -20 -61 -37
l-29 -30 -3 -1735 -2 -1734 145 0 145 0 0 314 0 314 -49 41 c-63 53 -93 113
-93 189 -1 74 16 112 86 194 l56 67 0 1161 c0 1257 3 1196 -52 1234 -22 16
-22 16 10 16 33 0 35 -3 46 -53 l7 -28 157 3 157 3 5 35 c5 33 8 35 45 38 l40
3 -30 -31 -30 -31 -3 -697 c-1 -383 -1 -821 0 -972 l3 -274 143 164 142 164
-2 807 -3 808 -30 31 -30 31 40 -3 c37 -3 40 -5 45 -38 l5 -35 157 -3 157 -3
7 28 c11 50 13 53 46 53 32 0 32 0 10 -16 -53 -37 -52 -27 -52 -659 0 -323 4
-585 8 -583 5 2 70 74 146 160 l137 157 -3 440 -3 440 -29 30 c-16 17 -44 33
-61 37 -27 5 -31 9 -27 30 2 13 1 35 -2 48 -6 24 -11 25 -84 28 l-77 3 -5 35
-5 35 -160 0 -160 0 -5 -35 -5 -35 -80 -5 c-44 -3 -116 -3 -160 0 l-80 5 -5
35 -5 35 -158 3 c-121 2 -158 0 -162 -10z"/>
<path d="M3887 6273 c-9 -2 -150 -157 -313 -344 -162 -186 -298 -340 -302
-343 -4 -2 -35 20 -70 49 -34 30 -78 58 -97 64 -41 11 -99 0 -127 -26 -33 -29
-1382 -1583 -1395 -1606 -21 -37 -16 -110 10 -145 29 -41 422 -381 454 -393
41 -15 88 -10 124 14 19 12 343 378 722 812 486 559 690 801 698 827 21 67 5
106 -73 179 l-71 66 289 333 c294 337 313 362 314 392 0 22 -64 95 -101 114
-29 14 -32 15 -62 7z"/>
<path d="M6753 6250 c-413 -42 -710 -320 -789 -736 -22 -121 -15 -326 16 -439
90 -329 321 -558 643 -635 173 -42 364 -36 529 16 91 29 128 59 128 103 0 37
-37 81 -70 82 -14 1 -65 -11 -115 -26 -81 -26 -104 -29 -235 -29 -163 0 -227
13 -345 69 -225 108 -373 335 -400 615 -13 140 33 342 106 467 51 86 180 211
264 255 200 104 415 122 623 52 103 -34 132 -30 160 23 34 63 5 104 -95 137
-142 46 -277 60 -420 46z"/>
<path d="M4504 6196 l-29 -24 -3 -819 c-2 -450 0 -833 3 -851 8 -46 37 -72 81
-72 50 0 72 15 84 58 6 24 10 303 10 800 l0 762 295 0 c304 0 368 -6 438 -42
216 -109 274 -434 113 -631 -29 -36 -63 -63 -110 -87 l-69 -35 -234 -5 -235
-5 -24 -28 -24 -28 0 -358 0 -358 23 -21 c33 -31 90 -30 122 3 l25 24 0 294 0
294 168 6 c244 9 337 41 453 156 176 176 217 460 100 696 -65 130 -172 222
-318 272 -41 14 -109 17 -444 20 l-396 4 -29 -25z"/>
<path d="M7579 6191 l-29 -29 0 -831 c0 -504 4 -840 10 -855 21 -56 25 -57
566 -54 l496 3 24 28 c29 34 31 76 3 111 l-20 26 -455 0 -454 0 0 790 0 791
-25 24 c-34 35 -78 33 -116 -4z"/>
<path d="M7905 6195 l-25 -24 0 -686 0 -686 26 -24 27 -25 334 0 c341 0 362 2
390 39 27 34 8 101 -34 120 -16 7 -119 11 -298 11 l-275 0 0 615 c0 429 -3
621 -11 638 -23 50 -95 62 -134 22z"/>
<path d="M6726 5905 c-202 -51 -359 -208 -411 -410 -20 -79 -20 -249 1 -329
64 -249 292 -425 552 -426 140 0 338 71 362 131 12 28 11 36 -6 67 -30 55 -62
60 -142 24 -203 -94 -433 -45 -543 114 -97 141 -94 381 6 516 116 157 355 205
542 110 23 -12 55 -22 71 -22 35 0 69 34 78 78 5 27 2 36 -25 61 -17 16 -70
43 -119 61 -74 27 -104 33 -197 36 -76 2 -128 -1 -169 -11z"/>
<path d="M4821 5864 c-28 -35 -26 -77 3 -111 l24 -28 187 -5 c170 -5 188 -7
201 -24 21 -30 17 -79 -8 -103 -19 -17 -39 -22 -104 -25 -101 -4 -124 -20
-124 -83 0 -64 23 -79 124 -83 97 -5 149 8 203 47 60 43 88 108 88 201 -1 88
-23 141 -80 188 -56 45 -94 52 -303 52 l-191 0 -20 -26z"/>
<path d="M3393 4366 c-101 -33 -170 -93 -220 -189 -38 -74 -44 -198 -14 -279
94 -247 404 -316 589 -131 223 223 77 597 -238 610 -45 2 -92 -3 -117 -11z"/>
<path d="M2748 4050 l-138 -160 0 -375 0 -375 145 0 145 0 0 535 c0 294 -3
535 -7 535 -5 -1 -70 -73 -145 -160z"/>
<path d="M5800 4083 c-23 -9 -30 -24 -30 -73 0 -53 13 -70 52 -70 32 0 57 35
39 53 -9 9 -13 6 -18 -11 -4 -16 -12 -22 -27 -20 -18 3 -21 10 -21 48 0 39 3
45 23 48 15 2 22 -2 22 -12 0 -9 7 -16 15 -16 21 0 19 16 -5 40 -21 21 -25 22
-50 13z"/>
<path d="M6443 4079 c-26 -10 -40 -64 -26 -106 8 -23 16 -29 46 -31 28 -2 38
1 47 18 17 31 1 47 -20 20 -26 -35 -50 -20 -50 30 0 46 24 65 45 37 13 -18 35
-23 35 -9 0 13 -23 39 -40 44 -8 3 -25 2 -37 -3z"/>
<path d="M8160 4070 c-22 -22 -27 -78 -10 -111 8 -14 21 -19 50 -19 39 0 40 1
40 35 0 32 -2 35 -30 35 -16 0 -30 -4 -30 -10 0 -5 9 -10 21 -10 26 0 20 -24
-8 -28 -24 -4 -37 32 -27 73 7 28 41 35 50 10 8 -19 24 -20 24 -1 0 14 -36 46
-52 46 -5 0 -17 -9 -28 -20z"/>
<path d="M4470 4010 c0 -56 3 -70 15 -70 9 0 15 9 15 24 0 18 8 25 33 32 22 7
33 17 35 32 5 34 -16 52 -59 52 l-39 0 0 -70z m75 30 c0 -8 -10 -16 -22 -18
-18 -3 -23 2 -23 18 0 16 5 21 23 18 12 -2 22 -10 22 -18z"/>
<path d="M4710 4056 c-31 -83 -35 -143 -6 -103 16 21 66 23 66 2 0 -8 6 -15
14 -15 11 0 10 14 -7 70 -16 54 -24 70 -39 70 -10 0 -22 -10 -28 -24z m39 -43
c1 -7 -6 -13 -15 -13 -11 0 -14 5 -10 16 3 9 6 23 7 32 0 14 2 13 9 -3 5 -11
9 -26 9 -32z"/>
<path d="M4910 4011 c0 -41 4 -71 10 -71 6 0 10 11 10 24 0 18 8 25 33 32 28
9 32 14 32 44 0 34 -1 35 -42 38 l-43 3 0 -70z m68 27 c3 -13 -3 -18 -22 -18
-20 0 -26 5 -26 21 0 15 5 20 22 17 13 -2 24 -11 26 -20z"/>
<path d="M5120 4010 l0 -70 45 0 c25 0 45 5 45 10 0 6 -13 10 -30 10 -23 0
-30 4 -30 20 0 16 7 20 30 20 17 0 30 5 30 10 0 6 -13 10 -30 10 -23 0 -30 4
-30 20 0 16 7 20 30 20 17 0 30 5 30 10 0 6 -20 10 -45 10 l-45 0 0 -70z"/>
<path d="M5340 4010 c0 -40 4 -70 10 -70 6 0 10 11 10 25 0 20 5 25 25 25 20
0 25 -5 25 -25 0 -47 18 -25 22 28 6 71 -4 87 -52 87 l-40 0 0 -70z m70 30 c0
-15 -7 -20 -25 -20 -18 0 -25 5 -25 20 0 15 7 20 25 20 18 0 25 -5 25 -20z"/>
<path d="M5990 4011 c0 -41 4 -71 10 -71 6 0 10 11 10 25 0 33 37 36 42 3 2
-12 9 -23 15 -25 9 -3 12 13 10 64 l-2 68 -42 3 -43 3 0 -70z m68 27 c3 -13
-3 -18 -22 -18 -20 0 -26 5 -26 21 0 15 5 20 22 17 13 -2 24 -11 26 -20z"/>
<path d="M6200 4070 c0 -5 9 -10 20 -10 17 0 20 -7 20 -50 0 -43 -3 -50 -20
-50 -11 0 -20 -4 -20 -10 0 -5 23 -10 50 -10 28 0 50 5 50 10 0 6 -9 10 -20
10 -17 0 -20 7 -20 50 0 43 3 50 20 50 11 0 20 5 20 10 0 6 -22 10 -50 10 -27
0 -50 -4 -50 -10z"/>
<path d="M6630 4010 c0 -56 3 -70 15 -70 10 0 15 10 15 27 l0 27 28 -27 c42
-40 62 -33 22 8 l-34 35 27 28 c15 15 27 31 27 35 0 16 -26 5 -47 -20 l-22
-28 -1 28 c0 17 -5 27 -15 27 -12 0 -15 -14 -15 -70z"/>
<path d="M6850 4010 l0 -70 45 0 c25 0 45 5 45 10 0 6 -13 10 -30 10 -23 0
-30 4 -30 20 0 16 7 20 30 20 17 0 30 5 30 10 0 6 -13 10 -30 10 -23 0 -30 4
-30 20 0 16 7 20 30 20 17 0 30 5 30 10 0 6 -20 10 -45 10 l-45 0 0 -70z"/>
<path d="M7060 4070 c0 -5 9 -10 20 -10 18 0 20 -7 20 -60 0 -33 4 -60 10 -60
6 0 10 27 10 60 0 53 2 60 20 60 11 0 20 5 20 10 0 6 -22 10 -50 10 -27 0 -50
-4 -50 -10z"/>
<path d="M7500 4010 l0 -70 45 0 c25 0 45 5 45 10 0 6 -16 10 -35 10 l-35 0 0
60 c0 33 -4 60 -10 60 -6 0 -10 -30 -10 -70z"/>
<path d="M7720 4010 l0 -70 45 0 c25 0 45 5 45 10 0 6 -16 10 -35 10 -28 0
-35 4 -35 20 0 16 7 20 30 20 17 0 30 5 30 10 0 6 -13 10 -30 10 -23 0 -30 4
-30 20 0 15 7 20 29 20 17 0 33 5 36 10 4 6 -12 10 -39 10 l-46 0 0 -70z"/>
<path d="M7950 4056 c-29 -77 -35 -151 -9 -103 12 21 57 23 65 2 4 -8 12 -15
19 -15 10 0 8 17 -8 70 -16 54 -24 70 -39 70 -10 0 -22 -10 -28 -24z m39 -43
c1 -7 -6 -13 -15 -13 -11 0 -14 5 -10 16 3 9 6 23 7 32 0 14 2 13 9 -3 5 -11
9 -26 9 -32z"/>
<path d="M8360 4022 c0 -65 11 -82 52 -82 35 0 48 24 48 89 0 39 -4 51 -15 51
-12 0 -15 -13 -15 -61 0 -57 -1 -60 -22 -57 -20 3 -23 10 -26 61 -4 75 -22 74
-22 -1z"/>
<path d="M8580 4010 l0 -70 45 0 c25 0 45 5 45 10 0 6 -16 10 -35 10 -28 0
-35 4 -35 20 0 16 7 20 35 20 19 0 35 5 35 10 0 6 -16 10 -35 10 -28 0 -35 4
-35 20 0 16 7 20 35 20 19 0 35 5 35 10 0 6 -20 10 -45 10 l-45 0 0 -70z"/>
<path d="M2200 3454 c-52 -28 -132 -32 -187 -9 -19 8 -37 15 -39 15 -2 0 -4
-72 -4 -160 l0 -160 145 0 145 0 0 170 c0 94 -3 169 -7 169 -5 -1 -28 -12 -53
-25z"/>
</g>
</svg>
